<mxfile host="app.diagrams.net" modified="2023-02-16T09:01:45.541Z" agent="5.0 (Macintosh; Intel Mac OS X 10_15_7) AppleWebKit/537.36 (KHTML, like Gecko) Chrome/109.0.0.0 Safari/537.36" etag="eduEdj43T01ra-7ZvGaJ" version="20.8.20" type="github">
  <diagram name="第 1 页" id="rOhWPmrb-y5vXvm6HC1C">
    <mxGraphModel dx="1247" dy="35" grid="1" gridSize="10" guides="1" tooltips="1" connect="1" arrows="1" fold="1" page="1" pageScale="1" pageWidth="827" pageHeight="1169" math="0" shadow="0">
      <root>
        <mxCell id="0" />
        <mxCell id="1" parent="0" />
        <mxCell id="tFdOo8BiymClz4-2ZFzP-1" value="" style="shape=image;verticalLabelPosition=bottom;labelBackgroundColor=default;verticalAlign=top;aspect=fixed;imageAspect=0;image=data:image/png,iVBORw0KGgoAAAANSUhEUgAAAOEAAADhCAMAAAAJbSJIAAAAflBMVEX///8AAAAwMDAODg74+Pjv7+/f39/y8vLZ2dnOzs7Kysp7e3vq6urBwcFfX194eHiqqqqfn5+UlJSKioqwsLBpaWnj4+MgICCEhIQ/Pz8UFBS5ubk6OjpycnKQkJCkpKRGRkYqKipRUVFlZWVXV1cbGxskJCRCQkI1NTUtLS3r3xNZAAAHJ0lEQVR4nO2da5uaOhCArXILEK4hopGbuFv3///BA9o9tV1hCYSM5znzfqm2T5O8BjEZmGGzQRAEQRAEWYbtc4cQl4ooTtI0z70wLMLQy/M0TeJIUJcQh/s29DCl4a6I0uJyaPa7H1PY7ZvDpUgjRh0DeuxjGLbDYq+e5DRG7SURMV9L1bdEmh0Wq/3JIcsjx4dW6+TcODhMOxZncQpil4PZWSw7ruf2wDGLHO12PMq0yP2mjfXNpUHyk2a9OyfP1XECcr09iN6dfeGuq+cngHaflOsdriSAlvtFsM5EiuU/5uqohXI/AnNyGeZKlPqZun8bptAqXPEwaJkBmCpBD9pkkFCJn/1q38BHrgr2libkD/z3vJlLBY2tkoHsjh0P7/u3arYk26ULubk/8m/nMIkZJZZpG4/Y9l/vTYtQFifh+W1mT8EywUq2v+acM2rN+1wNi7L83MjObbVE0JToaBvkVMmm3HRoHnxI9Lzkq5hO7CMoha92Y2P4NJn6DUkX9DOl/XbFDbgVtVOGML8D+k3LbxcN4QUrCr47CdHZjY8epIfc1RXKtUk6Gsqbf5ieB9s8aYya3OHx8O7tPLvV64BetXghMQsz+vl8QNfZTT5dzyjemMlBnn7o29ntPV+xveWWwjHLYOXPVwOqDfvjNNJ/XcEYOkZXMeyotZ5r/JHzzFqGHdeQ6bDkwvtmIKsZ9pyCmKz3s2iSqh04oWszvHEMYqp6Ni0Rt1M3VOsb3nlv00504bVNw/TdqGzfpXrWZfgpWrdhGbmOxaevC2zfcjqxsK3l1GAMf/PWXH+eM6+MmbjflOB02pxb3Z+32xcEi8s8u9Sn7dz9PbShNtAQDV8fNETD1wcN0fCR3eAuVBunr/t8lYbHDa8g71g4V3zz9VYzpXN4+3uaQhy/1/R+k8m6c7j7/CdOPZ0HbO393oBqMuzx3XI4ZqyOoHT/uKSl0fAGZ16zmtwpfRIJ0m14wxHpZUI8ZTrHU5DQgbAsiOEN36FJcZ61SX/gGhSd21h4AM7wjmH6NEryQHJK93VWxoyY9vdhHmjDR1nfcQVjUZLmYZFlQRBkWVF0r9qsI/TSpIqYoMSSC0e+kOFKoKEMaAgDGsqAhjCgoQxoCAMayoCGMKChDGgIAxrKgIYwoKEMaAgDGsqAhjCgoQxoCAMayoCGMKChDGgIAxrKgIYwoKEMaAgDGsqAhjCgoQxP7uZWONK5fB2UUsMQusCv8aS2mtqMkqOyMnCzEM/K3qrOmXmPoApwG+L5fbnqs4J2hZZisH/hpEN3WK+S97RvhdaZJOnIbdWrZXY1qdBSqObbalGr5q59FAlRXObrAYPTckItrPWz87YXjxHFZSM4Yd6lmdj/7F7k8reO2yBhQ2kg07FclgRbqVro2jMs389eUgnC+xKJU7rpqyf6RFRJHjSzOgTMId2fzlkR5mUcCdfpsXpurwhlVVLmYdGeT0sLiGKWLBq+PmiIhq8PGqLh66M01qb6oUfyrF41wqogn+MRxJaOqhG2OxhPWJNteS/rqykibNO80WD1SZPTf4MmGmPe3C1n14qfzvsFtmqEaUUKniY3xCVn/EvAC+K6hWGx5KJYLkiGyrzDXZkxiEjaQ7NM7PhRFxUdrYMOfu3Jdwgru537VSbU8n64ZF4syGhBjFcx/MSwfZ8T0ccqbg/o9Iqi6B/Q2b8KPc/L07RM4v7Blb5vykSXX8ZwNdBQBjSEAQ1lQEMY0FAGNIQBDWVAQxjQUAY0hAENZUBDGNBQBjSEAQ1lQEMY0FAGNIQBDWVAQxjQUAY0hAENZUBDGNBQBjSEAQ1lQEMY0FCG/6PhjxCq2sAndvh1UGozSnYxpKMRq60aMZDkny/OZp6JlT8f0HV2i4PPbzzF/vf/WzF+dRoaznl2o+lQk32rpaOvNobhJIOfdkc6u2E60mpHE0Sjt5wrwmJtMz4QOr/x8YZvXOIV65wYJJ6S5bCgh7HD9IH3IqG+2iIgtk+TYmJ21fyDdLMxp3VxY1dn5bR0glEMi4gyk8o2WtRlJdHRL9GPOksYJVzu2DU4oSzJ6g+pghg3qiWCm82iZMOmDsJbToWgLnE4575v230aBucOcalgUZyUYVA3SzoJlgluDKUPwV2B7eLznAmRTDmdvYITnD24lHgBTmoWyU9qwL0IoRK/DgZtMoDC4nhmBi3zhFbt6p+82rfxSpT69dD10n3lqRcstkcgkLUGHgncVfx6/ARarqNceffteksrcy1hX6w3fb8xSA5T/+PgaSy5yaNCs14WKy5bOAGLZfJbnTkcCy3Rkuf4bhwcvgahlXEKYlf/3H3VtERZqP5qHrKUOfpjlmMYtiNir146obvaixkxoUtOj8NdEaXF5fCxn6a7238cLkUaCaoxBKsI2+cOIYSKPlzRl44IwyLsS0fcCkb0sQ3icB/6Yg+CIAiCIP99/gHFN5OJW6JEwQAAAABJRU5ErkJggg==;" vertex="1" parent="1">
          <mxGeometry x="1232.5" y="1867.5" width="190" height="190" as="geometry" />
        </mxCell>
        <mxCell id="tFdOo8BiymClz4-2ZFzP-2" value="&lt;p style=&quot;line-height: 140%; font-size: 30px;&quot;&gt;&lt;br&gt;&lt;/p&gt;" style="rounded=1;whiteSpace=wrap;html=1;shadow=0;glass=0;sketch=1;fillWeight=2;hachureGap=12;hachureAngle=-41;jiggle=1;curveFitting=1;simplification=0;strokeColor=none;strokeWidth=2;fontFamily=Architects Daughter;fontSource=https%3A%2F%2Ffonts.googleapis.com%2Fcss%3Ffamily%3DArchitects%2BDaughter;fontSize=30;fontColor=#666666;fillColor=#95D2F5;" vertex="1" parent="1">
          <mxGeometry x="1232.5" y="1860" width="171" height="190" as="geometry" />
        </mxCell>
        <mxCell id="tFdOo8BiymClz4-2ZFzP-3" value="csd_content_center db" style="text;html=1;strokeColor=none;fillColor=none;align=center;verticalAlign=middle;whiteSpace=wrap;rounded=0;sketch=1;fontSize=30;fontColor=#FF66FF;" vertex="1" parent="1">
          <mxGeometry x="1163.5" y="2050" width="350" height="80" as="geometry" />
        </mxCell>
        <mxCell id="tFdOo8BiymClz4-2ZFzP-4" value="" style="shape=image;verticalLabelPosition=bottom;labelBackgroundColor=default;verticalAlign=top;aspect=fixed;imageAspect=0;image=data:image/png,iVBORw0KGgoAAAANSUhEUgAAAOEAAADhCAMAAAAJbSJIAAAAflBMVEX///8AAAAwMDAODg74+Pjv7+/f39/y8vLZ2dnOzs7Kysp7e3vq6urBwcFfX194eHiqqqqfn5+UlJSKioqwsLBpaWnj4+MgICCEhIQ/Pz8UFBS5ubk6OjpycnKQkJCkpKRGRkYqKipRUVFlZWVXV1cbGxskJCRCQkI1NTUtLS3r3xNZAAAHJ0lEQVR4nO2da5uaOhCArXILEK4hopGbuFv3///BA9o9tV1hCYSM5znzfqm2T5O8BjEZmGGzQRAEQRAEWYbtc4cQl4ooTtI0z70wLMLQy/M0TeJIUJcQh/s29DCl4a6I0uJyaPa7H1PY7ZvDpUgjRh0DeuxjGLbDYq+e5DRG7SURMV9L1bdEmh0Wq/3JIcsjx4dW6+TcODhMOxZncQpil4PZWSw7ruf2wDGLHO12PMq0yP2mjfXNpUHyk2a9OyfP1XECcr09iN6dfeGuq+cngHaflOsdriSAlvtFsM5EiuU/5uqohXI/AnNyGeZKlPqZun8bptAqXPEwaJkBmCpBD9pkkFCJn/1q38BHrgr2libkD/z3vJlLBY2tkoHsjh0P7/u3arYk26ULubk/8m/nMIkZJZZpG4/Y9l/vTYtQFifh+W1mT8EywUq2v+acM2rN+1wNi7L83MjObbVE0JToaBvkVMmm3HRoHnxI9Lzkq5hO7CMoha92Y2P4NJn6DUkX9DOl/XbFDbgVtVOGML8D+k3LbxcN4QUrCr47CdHZjY8epIfc1RXKtUk6Gsqbf5ieB9s8aYya3OHx8O7tPLvV64BetXghMQsz+vl8QNfZTT5dzyjemMlBnn7o29ntPV+xveWWwjHLYOXPVwOqDfvjNNJ/XcEYOkZXMeyotZ5r/JHzzFqGHdeQ6bDkwvtmIKsZ9pyCmKz3s2iSqh04oWszvHEMYqp6Ni0Rt1M3VOsb3nlv00504bVNw/TdqGzfpXrWZfgpWrdhGbmOxaevC2zfcjqxsK3l1GAMf/PWXH+eM6+MmbjflOB02pxb3Z+32xcEi8s8u9Sn7dz9PbShNtAQDV8fNETD1wcN0fCR3eAuVBunr/t8lYbHDa8g71g4V3zz9VYzpXN4+3uaQhy/1/R+k8m6c7j7/CdOPZ0HbO393oBqMuzx3XI4ZqyOoHT/uKSl0fAGZ16zmtwpfRIJ0m14wxHpZUI8ZTrHU5DQgbAsiOEN36FJcZ61SX/gGhSd21h4AM7wjmH6NEryQHJK93VWxoyY9vdhHmjDR1nfcQVjUZLmYZFlQRBkWVF0r9qsI/TSpIqYoMSSC0e+kOFKoKEMaAgDGsqAhjCgoQxoCAMayoCGMKChDGgIAxrKgIYwoKEMaAgDGsqAhjCgoQxoCAMayoCGMKChDGgIAxrKgIYwoKEMaAgDGsqAhjCgoQxP7uZWONK5fB2UUsMQusCv8aS2mtqMkqOyMnCzEM/K3qrOmXmPoApwG+L5fbnqs4J2hZZisH/hpEN3WK+S97RvhdaZJOnIbdWrZXY1qdBSqObbalGr5q59FAlRXObrAYPTckItrPWz87YXjxHFZSM4Yd6lmdj/7F7k8reO2yBhQ2kg07FclgRbqVro2jMs389eUgnC+xKJU7rpqyf6RFRJHjSzOgTMId2fzlkR5mUcCdfpsXpurwhlVVLmYdGeT0sLiGKWLBq+PmiIhq8PGqLh66M01qb6oUfyrF41wqogn+MRxJaOqhG2OxhPWJNteS/rqykibNO80WD1SZPTf4MmGmPe3C1n14qfzvsFtmqEaUUKniY3xCVn/EvAC+K6hWGx5KJYLkiGyrzDXZkxiEjaQ7NM7PhRFxUdrYMOfu3Jdwgru537VSbU8n64ZF4syGhBjFcx/MSwfZ8T0ccqbg/o9Iqi6B/Q2b8KPc/L07RM4v7Blb5vykSXX8ZwNdBQBjSEAQ1lQEMY0FAGNIQBDWVAQxjQUAY0hAENZUBDGNBQBjSEAQ1lQEMY0FAGNIQBDWVAQxjQUAY0hAENZUBDGNBQBjSEAQ1lQEMY0FCG/6PhjxCq2sAndvh1UGozSnYxpKMRq60aMZDkny/OZp6JlT8f0HV2i4PPbzzF/vf/WzF+dRoaznl2o+lQk32rpaOvNobhJIOfdkc6u2E60mpHE0Sjt5wrwmJtMz4QOr/x8YZvXOIV65wYJJ6S5bCgh7HD9IH3IqG+2iIgtk+TYmJ21fyDdLMxp3VxY1dn5bR0glEMi4gyk8o2WtRlJdHRL9GPOksYJVzu2DU4oSzJ6g+pghg3qiWCm82iZMOmDsJbToWgLnE4575v230aBucOcalgUZyUYVA3SzoJlgluDKUPwV2B7eLznAmRTDmdvYITnD24lHgBTmoWyU9qwL0IoRK/DgZtMoDC4nhmBi3zhFbt6p+82rfxSpT69dD10n3lqRcstkcgkLUGHgncVfx6/ARarqNceffteksrcy1hX6w3fb8xSA5T/+PgaSy5yaNCs14WKy5bOAGLZfJbnTkcCy3Rkuf4bhwcvgahlXEKYlf/3H3VtERZqP5qHrKUOfpjlmMYtiNir146obvaixkxoUtOj8NdEaXF5fCxn6a7238cLkUaCaoxBKsI2+cOIYSKPlzRl44IwyLsS0fcCkb0sQ3icB/6Yg+CIAiCIP99/gHFN5OJW6JEwQAAAABJRU5ErkJggg==;" vertex="1" parent="1">
          <mxGeometry x="1967.12" y="1847.5" width="190" height="190" as="geometry" />
        </mxCell>
        <mxCell id="tFdOo8BiymClz4-2ZFzP-5" value="&lt;p style=&quot;line-height: 140%; font-size: 30px;&quot;&gt;&lt;br&gt;&lt;/p&gt;" style="rounded=1;whiteSpace=wrap;html=1;shadow=0;glass=0;sketch=1;fillWeight=2;hachureGap=12;hachureAngle=-41;jiggle=1;curveFitting=1;simplification=0;strokeColor=none;strokeWidth=2;fontFamily=Architects Daughter;fontSource=https%3A%2F%2Ffonts.googleapis.com%2Fcss%3Ffamily%3DArchitects%2BDaughter;fontSize=30;fontColor=#666666;fillColor=#95D2F5;" vertex="1" parent="1">
          <mxGeometry x="1967.12" y="1840" width="190" height="205" as="geometry" />
        </mxCell>
        <mxCell id="tFdOo8BiymClz4-2ZFzP-6" value="lifestyle db" style="text;html=1;strokeColor=none;fillColor=none;align=center;verticalAlign=middle;whiteSpace=wrap;rounded=0;sketch=1;fontSize=30;fontColor=#FF66FF;" vertex="1" parent="1">
          <mxGeometry x="1890" y="2065" width="344.25" height="52.5" as="geometry" />
        </mxCell>
        <mxCell id="tFdOo8BiymClz4-2ZFzP-7" value="&lt;p style=&quot;line-height: 140%; font-size: 30px;&quot;&gt;&lt;font color=&quot;#ff33ff&quot; style=&quot;font-size: 30px;&quot;&gt;&lt;span style=&quot;font-size: 30px;&quot;&gt;&lt;b style=&quot;font-size: 30px;&quot;&gt;reward history sync job&lt;/b&gt;&lt;/span&gt;&lt;/font&gt;&lt;/p&gt;" style="rounded=1;whiteSpace=wrap;html=1;shadow=0;glass=0;sketch=1;fillWeight=2;hachureGap=12;hachureAngle=-41;jiggle=1;curveFitting=1;simplification=0;strokeColor=#666666;strokeWidth=2;fontFamily=Architects Daughter;fontSource=https%3A%2F%2Ffonts.googleapis.com%2Fcss%3Ffamily%3DArchitects%2BDaughter;fontSize=30;fontColor=#666666;fillColor=#95D2F5;" vertex="1" parent="1">
          <mxGeometry x="1460" y="1540" width="470" height="140" as="geometry" />
        </mxCell>
        <mxCell id="tFdOo8BiymClz4-2ZFzP-8" value="" style="edgeStyle=orthogonalEdgeStyle;rounded=0;sketch=1;orthogonalLoop=1;jettySize=auto;html=1;strokeWidth=2;fontSize=30;fontColor=#FF66FF;strokeColor=#333333;entryX=1;entryY=0.5;entryDx=0;entryDy=0;exitX=0.5;exitY=0;exitDx=0;exitDy=0;" edge="1" parent="1" source="tFdOo8BiymClz4-2ZFzP-5" target="tFdOo8BiymClz4-2ZFzP-7">
          <mxGeometry relative="1" as="geometry">
            <mxPoint x="2055" y="1840" as="targetPoint" />
            <mxPoint x="2240" y="1590" as="sourcePoint" />
          </mxGeometry>
        </mxCell>
        <mxCell id="tFdOo8BiymClz4-2ZFzP-9" value="" style="edgeStyle=orthogonalEdgeStyle;rounded=0;sketch=1;orthogonalLoop=1;jettySize=auto;html=1;strokeWidth=2;fontSize=30;fontColor=#FF66FF;strokeColor=#333333;entryX=0.5;entryY=0;entryDx=0;entryDy=0;exitX=0;exitY=0.5;exitDx=0;exitDy=0;" edge="1" parent="1" source="tFdOo8BiymClz4-2ZFzP-7" target="tFdOo8BiymClz4-2ZFzP-2">
          <mxGeometry relative="1" as="geometry">
            <mxPoint x="1345" y="1810" as="targetPoint" />
            <mxPoint x="1450" y="1610" as="sourcePoint" />
          </mxGeometry>
        </mxCell>
        <mxCell id="tFdOo8BiymClz4-2ZFzP-10" value="select" style="text;html=1;strokeColor=none;fillColor=none;align=center;verticalAlign=middle;whiteSpace=wrap;rounded=0;sketch=1;fontSize=30;fontColor=#FF66FF;" vertex="1" parent="1">
          <mxGeometry x="1967.1199999999997" y="1714" width="190" height="40" as="geometry" />
        </mxCell>
        <mxCell id="tFdOo8BiymClz4-2ZFzP-11" value="into" style="text;html=1;strokeColor=none;fillColor=none;align=center;verticalAlign=middle;whiteSpace=wrap;rounded=0;sketch=1;fontSize=30;fontColor=#FF66FF;" vertex="1" parent="1">
          <mxGeometry x="1222.9999999999995" y="1714" width="190" height="40" as="geometry" />
        </mxCell>
      </root>
    </mxGraphModel>
  </diagram>
</mxfile>
